<svg width="220" height="40" viewBox="0 0 220 40" fill="none" xmlns="http://www.w3.org/2000/svg"><path d="m66.415 33.722-5.128-7.59c-.313.046-.65.046-.963.046h-5.666v7.567H50V7.828h10.324c6.584 0 10.683 3.471 10.683 9.233 0 3.934-1.927 6.803-5.33 8.192l5.777 8.516h-5.038v-.047zm-6.293-21.867h-5.441v10.343h5.442c4.075 0 6.203-1.92 6.203-5.183s-2.128-5.16-6.203-5.16zM93.693 25.3H78.666c.537 2.892 2.866 4.743 6.203 4.743 2.15 0 3.83-.694 5.196-2.152l2.396 2.846c-1.724 2.106-4.412 3.217-7.704 3.217-6.405 0-10.57-4.258-10.57-10.159 0-5.9 4.21-10.066 9.898-10.066 5.6 0 9.675 4.026 9.675 10.228.022.347-.022.902-.067 1.342zm-15.05-3.055h10.862c-.358-2.87-2.463-4.814-5.42-4.814-2.889 0-5.016 1.921-5.442 4.814zm24.366-9.349v1.18h5.263v3.703h-5.106v15.92h-4.48V17.802H95.53v-3.703h3.158v-1.25c0-4.142 2.396-6.849 6.852-6.849 1.546 0 3.046.324 4.054 1.064l-1.254 3.472a4.261 4.261 0 0 0-2.464-.81c-1.881 0-2.866 1.064-2.866 3.17zm6.427 10.922c0-5.924 4.3-10.09 10.167-10.09 5.958 0 10.213 4.19 10.213 10.113 0 5.924-4.255 10.159-10.213 10.159-5.867-.023-10.167-4.235-10.167-10.182zm15.878 0c0-3.772-2.441-6.178-5.688-6.178-3.225 0-5.666 2.406-5.666 6.178s2.441 6.179 5.666 6.179c3.247.023 5.688-2.384 5.688-6.179zm19.887-10.089v4.397c-.403-.07-.717-.116-1.03-.116-3.404 0-5.554 2.083-5.554 6.109v9.603h-4.479V13.937h4.255v2.893c1.299-2.083 3.628-3.101 6.808-3.101zm35.81 8.655v11.338h-4.479V22.985c0-3.517-1.568-5.23-4.3-5.23-2.934 0-4.972 1.99-4.972 5.924v10.043h-4.479V22.985c0-3.517-1.567-5.23-4.3-5.23-2.978 0-4.971 1.99-4.971 5.924v10.043h-4.479V13.937h4.255v2.522c1.433-1.781 3.65-2.73 6.27-2.73 2.8 0 5.129 1.064 6.45 3.286 1.545-2.037 4.121-3.286 7.166-3.286 4.614 0 7.839 2.684 7.839 8.655zm21.767-.255v11.593h-4.232v-2.406c-1.075 1.712-3.158 2.66-6.025 2.66-4.367 0-7.144-2.475-7.144-5.923 0-3.286 2.15-5.878 7.951-5.878h4.949v-.3c0-2.708-1.568-4.305-4.77-4.305-2.15 0-4.367.74-5.8 1.967l-1.747-3.378c2.038-1.62 5.016-2.453 8.107-2.453 5.509.023 8.711 2.707 8.711 8.423zm-4.479 5.415v-2.291h-4.613c-3.046 0-3.874 1.18-3.874 2.638 0 1.666 1.366 2.73 3.65 2.73 2.172-.023 4.076-1.04 4.837-3.077zM220 32.635c-1.075.879-2.687 1.342-4.3 1.342-4.188 0-6.584-2.291-6.584-6.665v-9.51h-3.158v-3.703h3.158V9.564h4.479v4.512h5.128v3.703h-5.128v9.418c0 1.92.941 2.962 2.643 2.962.94 0 1.836-.255 2.508-.81L220 32.635z" fill="#141414"/><ellipse cx="15.5" cy="15" rx="15.5" ry="15" fill="url(#svgo-logo-1a)"/><path d="M15.5 18 31 40H0l15.5-22z" fill="url(#svgo-logo-2b)"/><path d="M0 0h15.5v18L0 40V0z" fill="url(#svgo-logo-3c)"/><defs><linearGradient id="svgo-logo-1a" x1="15.5" y1="0" x2="22.5" y2="28" gradientUnits="userSpaceOnUse"><stop offset="0" stop-color="#41BEE7"/><stop offset=".388" stop-color="#05BDE7"/><stop offset=".736" stop-color="#42E1E7"/></linearGradient><linearGradient id="svgo-logo-2b" x1="10.5" y1="25.5" x2="31.09" y2="39.872" gradientUnits="userSpaceOnUse"><stop offset=".049" stop-color="#42E1E7"/><stop offset=".536" stop-color="#30A1EF"/><stop offset=".867" stop-color="#6956B2"/></linearGradient><linearGradient id="svgo-logo-3c" x1="0" y1="0" x2="8.058" y2="28.484" gradientUnits="userSpaceOnUse"><stop offset=".07" stop-color="#7F3350"/><stop offset=".419" stop-color="#6956B2"/><stop offset="1" stop-color="#30A1EF"/></linearGradient></defs></svg>