<svg xmlns="http://www.w3.org/2000/svg"><symbol fill="none" id="icon-address" viewBox="0 0 40 40">
    <path d="M20 1C9.507 1 1 9.507 1 20s8.507 19 19 19 19-8.507 19-19S30.493 1 20 1z" stroke="#000" stroke-miterlimit="10"/>
    <path d="M20 1C14.696 1 9.708 9.507 9.708 20S14.696 39 20 39c5.305 0 10.292-8.507 10.292-19S25.305 1 20 1z" stroke="currentColor" stroke-miterlimit="10"/>
    <path d="M7.333 7.333c3.493 2.48 7.89 3.96 12.667 3.96s9.174-1.48 12.667-3.96m0 25.334c-3.493-2.48-7.89-3.959-12.667-3.959-4.776 0-9.174 1.48-12.667 3.96" stroke="#000" stroke-linecap="round" stroke-linejoin="round"/>
    <path d="M20 1v38m19-19H1" stroke="#000" stroke-miterlimit="10"/>
</symbol><symbol fill="none" id="icon-burger" viewBox="0 0 46 16">
    <path fill-rule="evenodd" clip-rule="evenodd" d="M46 0H0v4h46V0zm0 12H16v4h30v-4z" fill="currentColor"/>
</symbol><symbol fill="none" id="icon-close" viewBox="0 0 36 36">
    <path d="m1 1 34 34m0-34L1 35" stroke="#000" stroke-width="2"/>
</symbol><symbol fill="none" id="icon-download" viewBox="0 0 24 20">
    <path d="M1 14v2c0 .795.319 1.558.886 2.12a3.038 3.038 0 0 0 2.139.88h15.95c.802 0 1.572-.317 2.139-.88A2.988 2.988 0 0 0 23 16v-2" stroke="currentColor" stroke-width="1.5"/>
    <path d="m6.602 9.142 5.4 5.428 5.4-5.428M12 0v14.57" stroke="currentColor" stroke-width="1.5"/>
</symbol><symbol fill="none" id="icon-fb" viewBox="0 0 22 22">
    <path fill-rule="evenodd" clip-rule="evenodd" d="M6 0a6 6 0 0 0-6 6v10a6 6 0 0 0 6 6h10a6 6 0 0 0 6-6V6a6 6 0 0 0-6-6H6zm5.206 21.924a.798.798 0 0 0-.004.068c1.1 0 2.201 0 3.331.008v-8.486H17.1c.081 0 .121 0 .144-.02.023-.02.027-.064.038-.154.051-.464.102-.921.16-1.378.033-.274.068-.547.103-.821l.102-.822c.021-.122.014-.122-.11-.122h-3.003c-.007-.038-.007-.053-.007-.076 0-.234 0-.467-.002-.7a98.15 98.15 0 0 1 .002-1.393c0-.19.022-.38.058-.57.088-.465.357-.777.802-.876.226-.053.466-.076.707-.084a53.7 53.7 0 0 1 1.043-.001l.524.001c.088 0 .11-.022.11-.114V3.6c0-.076-.022-.107-.095-.107a3.163 3.163 0 0 1-.193-.019c-.064-.007-.128-.015-.194-.019a94.775 94.775 0 0 1-.682-.026c-.46-.018-.922-.037-1.38-.042a4.033 4.033 0 0 0-1.742.342c-.831.358-1.444.967-1.837 1.812a4.866 4.866 0 0 0-.423 1.978c-.01.64-.01 1.283-.008 1.925v.739H8.579c-.087 0-.116.022-.116.114v3.09c0 .056 0 .085.014.099.015.015.044.015.102.015h2.631v8.356a.87.87 0 0 1-.004.068z" fill="currentColor"/>
</symbol><symbol fill="none" id="icon-instagram" viewBox="0 0 22 22">
    <rect x="1" y="1" width="20" height="20" rx="5.5" stroke="currentColor" stroke-width="2"/>
    <path d="M16.622 3.852a1.1 1.1 0 1 1 1.222 1.83 1.1 1.1 0 0 1-1.222-1.83z" stroke="currentColor"/>
    <circle cx="11.001" cy="11" r="4.667" stroke="currentColor" stroke-width="2"/>
</symbol><symbol fill="none" id="icon-logo-2" viewBox="0 0 95 146">
    <ellipse cx="47.5" cy="46" rx="46.5" ry="45" stroke="#000" stroke-linecap="round" stroke-linejoin="round"/>
    <path d="M47.5 55 94 121H1l46.5-66z" stroke="#000" stroke-linecap="round" stroke-linejoin="round"/>
    <path d="M1 1h46.5v54L1 121V1z" stroke="#000" stroke-linecap="round" stroke-linejoin="round"/>
    <path d="m9.98 145.864-2.805-4.07c-.172.025-.356.025-.527.025h-3.1v4.057H1v-13.921h5.648c3.602 0 5.844 1.861 5.844 4.951 0 2.109-1.054 3.647-2.916 4.392l3.16 4.566H9.98zm-3.455-11.725H3.548v5.546h2.977c2.23 0 3.394-1.03 3.394-2.779 0-1.75-1.152-2.767-3.394-2.767zm18.377 7.208h-8.22c.294 1.551 1.568 2.544 3.393 2.544 1.177 0 2.095-.372 2.843-1.154l1.31 1.526c-.93 1.141-2.4 1.737-4.214 1.737-3.504 0-5.782-2.283-5.782-5.447 0-3.163 2.29-5.421 5.415-5.421 3.062 0 5.292 2.158 5.292 5.483 0 .199-.012.497-.037.732zm-8.233-1.637h5.942c-.196-1.526-1.347-2.581-2.964-2.581-1.593 0-2.745 1.03-2.977 2.581zm13.33-5.013v.633h2.879v1.985h-2.805v8.536h-2.45v-8.523h-1.728v-1.986h1.727v-.67c0-2.22 1.311-3.672 3.75-3.672.844 0 1.665.174 2.217.571l-.686 1.861a2.359 2.359 0 0 0-1.348-.434c-1.03 0-1.556.57-1.556 1.699zm3.516 5.856c0-3.176 2.352-5.421 5.574-5.421 3.26 0 5.587 2.245 5.587 5.421 0 3.177-2.328 5.447-5.587 5.447-3.222 0-5.574-2.258-5.574-5.447zm8.686 0c0-2.022-1.335-3.312-3.112-3.312-1.764 0-3.1 1.29-3.1 3.312 0 2.023 1.336 3.313 3.1 3.313 1.777.012 3.112-1.278 3.112-3.313zm10.879-5.409v2.357a3.399 3.399 0 0 0-.563-.062c-1.862 0-3.038 1.117-3.038 3.276v5.149h-2.45v-10.608h2.327v1.55c.698-1.116 1.973-1.662 3.724-1.662zm19.59 4.64v6.08h-2.45v-5.757c0-1.886-.858-2.804-2.352-2.804-1.605 0-2.72 1.067-2.72 3.176v5.385h-2.45v-5.757c0-1.886-.858-2.804-2.352-2.804-1.63 0-2.72 1.067-2.72 3.176v5.385h-2.45v-10.608h2.327v1.352c.784-.955 1.997-1.464 3.43-1.464 1.532 0 2.806.571 3.529 1.762.845-1.092 2.254-1.762 3.92-1.762 2.524 0 4.288 1.439 4.288 4.64zm11.897-.136v6.216H82.25v-1.291c-.588.918-1.728 1.427-3.296 1.427-2.389 0-3.908-1.328-3.908-3.176 0-1.762 1.176-3.152 4.35-3.152h2.707v-.161c0-1.451-.858-2.308-2.61-2.308-1.176 0-2.389.397-3.173 1.055l-.943-1.811c1.115-.869 2.744-1.315 4.435-1.315 3.014.012 4.754 1.451 4.754 4.516zm-2.45 2.903v-1.228h-2.525c-1.666 0-2.12.632-2.12 1.414 0 .893.748 1.464 1.998 1.464 1.2-.012 2.242-.558 2.646-1.65zM94 145.28c-.588.472-1.47.72-2.352.72-2.291 0-3.602-1.228-3.602-3.573v-5.099h-1.728v-1.986h1.728v-2.431h2.45v2.419h2.806v1.985h-2.806v5.05c0 1.03.515 1.588 1.446 1.588.514 0 1.004-.137 1.372-.434L94 145.28z" fill="#000"/>
</symbol><symbol fill="none" id="icon-vk" viewBox="0 0 22 22">
    <path fill-rule="evenodd" clip-rule="evenodd" d="M1.564 1.563C0 3.118 0 5.624 0 10.646v.69c0 5.022 0 7.529 1.555 9.1C3.12 22 5.627 22 10.65 22h.69c5.025 0 7.532 0 9.096-1.563C22 18.873 22 16.367 22 11.345v-.69c0-5.022 0-7.528-1.564-9.092C18.872 0 16.365 0 11.341 0h-.69C5.626 0 3.118 0 1.563 1.563zM18.99 6c.596 0 .72.312.596.742-.24 1.183-2.644 4.656-2.655 4.656-.209.344-.292.516 0 .903.103.149.323.37.575.623.258.261.55.556.784.84.846.978 1.484 1.806 1.661 2.376.167.57-.115.86-.679.86h-1.965c-.529 0-.794-.303-1.371-.963a24.937 24.937 0 0 0-.938-1.026c-1.17-1.161-1.672-1.312-1.964-1.312-.397 0-.512.118-.512.699v1.817c0 .495-.147.785-1.4.785-2.09 0-4.379-1.301-6.01-3.71C2.67 9.763 2 7.108 2 6.57c0-.301.115-.57.68-.57h1.964c.501 0 .69.226.877.785.972 2.892 2.592 5.409 3.26 5.409.252 0 .366-.119.366-.775V8.441c-.045-.853-.335-1.223-.549-1.496-.131-.167-.234-.299-.234-.483 0-.225.188-.462.501-.462h3.093c.418 0 .565.226.565.742v4.01c0 .43.177.581.303.581.25 0 .46-.15.92-.623 1.42-1.624 2.423-4.14 2.423-4.14.126-.301.356-.57.857-.57h1.965z" fill="currentColor"/>
</symbol></svg>